/* XPM */
static char *prince16[] = {
/* width height num_colors chars_per_pixel */
"    22    30       62            1",
/* colors */
". c #000000",
"# c #000021",
"a c #000032",
"b c #000054",
"c c #000087",
"d c #003232",
"e c #003265",
"f c #003298",
"g c #006565",
"h c #006598",
"i c #111111",
"j c #151515",
"k c #212121",
"l c #320065",
"m c #323232",
"n c #323265",
"o c #323297",
"p c #323298",
"q c #326565",
"r c #326597",
"s c #326598",
"t c #3265cb",
"u c #3265cc",
"v c #3298cc",
"w c #434343",
"x c #545454",
"y c #656565",
"z c #659797",
"A c #6598cc",
"B c #767676",
"C c #878787",
"D c #909090",
"E c #979765",
"F c #979797",
"G c #97cbcb",
"H c #986565",
"I c #989865",
"J c #98cccc",
"K c #9d9d75",
"L c #9d9d9d",
"M c #a9a9a9",
"N c #aaaaaa",
"O c #bababa",
"P c #c59d75",
"Q c #c59d9d",
"R c #c5c575",
"S c #c5c59d",
"T c #cb9765",
"U c #cc9865",
"V c #cccc65",
"W c #cccc98",
"X c #cccccc",
"Y c #ccffff",
"Z c #dcdcdc",
"0 c #dddddd",
"1 c #ededed",
"2 c #eeeeee",
"3 c #fecb97",
"4 c #fefefe",
"5 c #ffcc98",
"6 c #ffff98",
"7 c #ffffff",
/* pixels */
"..xxxxxxxxxxxxxxxxxxx.",
"..xxxxxxxxxxxxxxxxxxx.",
"..x7777777MOO7777777x.",
"..x7777777MOO7777777x.",
"..xmmmsoonByynsszwxxx.",
"..xmmmsoonByynsszwxxx.",
"..xxxivssc###fAAJixxx.",
"..xxxivssc###fAAJixxx.",
"..x77xwGGfbeeoAAmB22x.",
"..x77xwGGfbeeoAAmB22x.",
"..x772mwwueeevkky7XXC.",
"..x772mwwueeevkky7XXC.",
"..x774Xjjdlppaww10CCK.",
"..x774Xjjdlppaww10CCK.",
"..x7777OOiBxxm222MIID.",
"..x7747440422177FxIIP.",
"..x7747440422177FxIIP.",
"..x7777777777YssqIVVL.",
"..x7777777777YssqIVVL.",
"..x77474471AArggBUWWS.",
"..x77474471AArggBUWWS.",
"..x777777OsssexxIW55R.",
"..x777777OsssexxIW55R.",
"..x7747ZZethhqIITV66N.",
"..x7747ZZethhqIITV66N.",
"..x777777JsffHIIW655R.",
"..x777777JsffHIIW655R.",
"..x7747447zxxEVV3W66Q.",
"..x7747447zxxEVV3W66Q.",
"..xxxxxxxxCIIVWW5655S."
};
