/* XPM */
static char * prince_xpm[] = {
"32 32 432 2",
"  	c None",
". 	c #030303",
"+ 	c #000000",
"@ 	c #060606",
"# 	c #FFFFFF",
"$ 	c #636362",
"% 	c #4C4C4C",
"& 	c #5E5D5D",
"* 	c #555555",
"= 	c #FBFBF8",
"- 	c #343433",
"; 	c #B5B5B5",
"> 	c #FAF9F8",
", 	c #2C2C2B",
"' 	c #F1F1F1",
") 	c #FEFFFF",
"! 	c #FEFEFE",
"~ 	c #E8E5E7",
"{ 	c #B3B4AF",
"] 	c #7E7A78",
"^ 	c #726E6F",
"/ 	c #6E6C5F",
"( 	c #AEA59B",
"_ 	c #E5E3DB",
": 	c #FFFFFE",
"< 	c #FDFDFE",
"[ 	c #171717",
"} 	c #282727",
"| 	c #CECECE",
"1 	c #FFFFFD",
"2 	c #CECCCA",
"3 	c #B0ACAC",
"4 	c #969490",
"5 	c #A09698",
"6 	c #8B8A88",
"7 	c #C7C9C5",
"8 	c #F8F7F8",
"9 	c #979696",
"0 	c #141213",
"a 	c #2E3B47",
"b 	c #3F5F83",
"c 	c #000032",
"d 	c #000060",
"e 	c #0E0664",
"f 	c #413E44",
"g 	c #898B79",
"h 	c #1E1F1F",
"i 	c #121111",
"j 	c #7C7B75",
"k 	c #453D56",
"l 	c #000A30",
"m 	c #00486F",
"n 	c #09132A",
"o 	c #53626B",
"p 	c #4A4F5D",
"q 	c #454345",
"r 	c #E5E4E3",
"s 	c #9C9B9A",
"t 	c #060A0D",
"u 	c #78ABD7",
"v 	c #5C8AB8",
"w 	c #406DC2",
"x 	c #0444AC",
"y 	c #1A4CAF",
"z 	c #002C7B",
"A 	c #000012",
"B 	c #2F2D23",
"C 	c #1A1B1A",
"D 	c #34332F",
"E 	c #2E2E25",
"F 	c #00003C",
"G 	c #000889",
"H 	c #0E67C0",
"I 	c #72BEE6",
"J 	c #B4E0F7",
"K 	c #AECFE6",
"L 	c #AECBE0",
"M 	c #040A17",
"N 	c #020101",
"O 	c #DFDEDC",
"P 	c #171611",
"Q 	c #092837",
"R 	c #78A6DC",
"S 	c #3A66AA",
"T 	c #0961A0",
"U 	c #1E5096",
"V 	c #00319D",
"W 	c #10017D",
"X 	c #00001F",
"Y 	c #000023",
"Z 	c #0E16A1",
"` 	c #00107A",
" .	c #2B649E",
"..	c #80A6C1",
"+.	c #87B0D9",
"@.	c #E8F5FA",
"#.	c #192025",
"$.	c #1E1E1E",
"%.	c #E0DFDA",
"&.	c #575756",
"*.	c #528AB6",
"=.	c #6C8CDC",
"-.	c #668BC2",
";.	c #3676B6",
">.	c #00138E",
",.	c #00005D",
"'.	c #000001",
").	c #000002",
"!.	c #060091",
"~.	c #00006C",
"{.	c #095CAE",
"].	c #4689C7",
"^.	c #95BADC",
"/.	c #E6FDFF",
"(.	c #506E77",
"_.	c #716F70",
":.	c #E0E0DF",
"<.	c #535150",
"[.	c #0C182C",
"}.	c #76B7E0",
"|.	c #CFE7F6",
"1.	c #78A9D0",
"2.	c #144698",
"3.	c #000067",
"4.	c #00028A",
"5.	c #000006",
"6.	c #0012A9",
"7.	c #001184",
"8.	c #2354A1",
"9.	c #90BDD9",
"0.	c #94CBEE",
"a.	c #88C4D7",
"b.	c #000103",
"c.	c #73716F",
"d.	c #F8F7F7",
"e.	c #EBEAEA",
"f.	c #222221",
"g.	c #112F20",
"h.	c #BFDDDA",
"i.	c #84A9D9",
"j.	c #3672B3",
"k.	c #0016B2",
"l.	c #000014",
"m.	c #000720",
"n.	c #0057BF",
"o.	c #0862A6",
"p.	c #4973B8",
"q.	c #5882CA",
"r.	c #5196BB",
"s.	c #00161A",
"t.	c #888683",
"u.	c #FAF9F9",
"v.	c #E6E4E3",
"w.	c #252423",
"x.	c #FDFDFD",
"y.	c #DDDEDD",
"z.	c #352E27",
"A.	c #1F2524",
"B.	c #9EBAE2",
"C.	c #6795C9",
"D.	c #083C98",
"E.	c #0008B4",
"F.	c #00001B",
"G.	c #00132F",
"H.	c #005BC5",
"I.	c #2867A3",
"J.	c #86CAF0",
"K.	c #1F68AD",
"L.	c #050403",
"M.	c #84817D",
"N.	c #FFFEFF",
"O.	c #FEFEFD",
"P.	c #EEECEB",
"Q.	c #CDC9C8",
"R.	c #867C73",
"S.	c #A19C98",
"T.	c #19213A",
"U.	c #6E99BF",
"V.	c #3A81C2",
"W.	c #002AB1",
"X.	c #000010",
"Y.	c #000A26",
"Z.	c #0063CC",
"`.	c #227CC0",
" +	c #3F76A1",
".+	c #03081A",
"++	c #282626",
"@+	c #F4F4F4",
"#+	c #DAD7D6",
"$+	c #9F9998",
"%+	c #7B7152",
"&+	c #4B4A49",
"*+	c #0A0F1B",
"=+	c #2F6BC2",
"-+	c #0010AD",
";+	c #0E0B01",
">+	c #2D1E41",
",+	c #0035BF",
"'+	c #002FA7",
")+	c #000009",
"!+	c #090909",
"~+	c #CACACA",
"{+	c #F9F8F8",
"]+	c #E6E3E3",
"^+	c #BBB6B4",
"/+	c #6C6257",
"(+	c #9F9360",
"_+	c #F5F3F0",
":+	c #1A1812",
"<+	c #000312",
"[+	c #00006E",
"}+	c #6E6D76",
"|+	c #ACADC1",
"1+	c #000072",
"2+	c #000004",
"3+	c #090808",
"4+	c #D0CECC",
"5+	c #FCFCFC",
"6+	c #EEEDEC",
"7+	c #CCC9C9",
"8+	c #857975",
"9+	c #837B55",
"0+	c #A39863",
"a+	c #E9E8E8",
"b+	c #323233",
"c+	c #B0B0AC",
"d+	c #A19FA3",
"e+	c #070707",
"f+	c #C5C4C3",
"g+	c #F3F2F2",
"h+	c #DBD9D8",
"i+	c #A59A97",
"j+	c #615F51",
"k+	c #A29762",
"l+	c #A89C67",
"m+	c #E4E1DE",
"n+	c #34322F",
"o+	c #242021",
"p+	c #F6F3F3",
"q+	c #AFAFAA",
"r+	c #050505",
"s+	c #040201",
"t+	c #B9B6B4",
"u+	c #F9F9FA",
"v+	c #E8E5E3",
"w+	c #C2B9B6",
"x+	c #3C4450",
"y+	c #968E5F",
"z+	c #A29663",
"A+	c #B3A76E",
"B+	c #EAE9E9",
"C+	c #B5B5B0",
"D+	c #F2F2F3",
"E+	c #DEDEDE",
"F+	c #D3D1D1",
"G+	c #F7F4F1",
"H+	c #BFBFC3",
"I+	c #1C3757",
"J+	c #707255",
"K+	c #A09561",
"L+	c #AB9F68",
"M+	c #C2B576",
"N+	c #FCFBFA",
"O+	c #859BBA",
"P+	c #003061",
"Q+	c #3C524D",
"R+	c #9F9460",
"S+	c #A49964",
"T+	c #B8AB70",
"U+	c #D2C381",
"V+	c #FFFEFE",
"W+	c #C9D5E6",
"X+	c #2C5E9B",
"Y+	c #003F75",
"Z+	c #0D374A",
"`+	c #938B5C",
" @	c #A19461",
".@	c #B0A46B",
"+@	c #C8BA7B",
"@@	c #DFCF88",
"#@	c #EEF1F7",
"$@	c #7A9CC6",
"%@	c #004D94",
"&@	c #005087",
"*@	c #003356",
"=@	c #707455",
"-@	c #9D9360",
";@	c #A99D67",
">@	c #C0B174",
",@	c #D7C883",
"'@	c #E8D88E",
")@	c #F7F7FA",
"!@	c #8BA9CC",
"~@	c #527CB4",
"{@	c #0A5E9F",
"]@	c #005490",
"^@	c #00406A",
"/@	c #354B4A",
"(@	c #9D915E",
"_@	c #A39763",
":@	c #B6A96F",
"<@	c #CEC07E",
"[@	c #E2D28A",
"}@	c #EEDC91",
"|@	c #BAC5D4",
"1@	c #265692",
"2@	c #4978B0",
"3@	c #2D70AB",
"4@	c #005696",
"5@	c #004979",
"6@	c #0D364C",
"7@	c #8E865A",
"8@	c #AEA26A",
"9@	c #C6B879",
"0@	c #DCCC86",
"a@	c #EADA8F",
"b@	c #F0DF93",
"c@	c #F4F5F6",
"d@	c #596A8B",
"e@	c #003B77",
"f@	c #3173AD",
"g@	c #5381B7",
"h@	c #00589A",
"i@	c #005287",
"j@	c #003458",
"k@	c #676A51",
"l@	c #9D915F",
"m@	c #A79C66",
"n@	c #BDB073",
"o@	c #D5C682",
"p@	c #E6D68D",
"q@	c #EFDE92",
"r@	c #F2E194",
"s@	c #B9B7BE",
"t@	c #0E2D54",
"u@	c #00477A",
"v@	c #1463A2",
"w@	c #6388BC",
"x@	c #0A5FA0",
"y@	c #005591",
"z@	c #003F6A",
"A@	c #354A4B",
"B@	c #9B8F5D",
"C@	c #A19662",
"D@	c #B5A86F",
"E@	c #CDBF7E",
"F@	c #E1D18A",
"G@	c #ECDC91",
"H@	c #F1E094",
"I@	c #F3E295",
"J@	c #99989D",
"K@	c #002041",
"L@	c #004877",
"M@	c #025694",
"N@	c #5A84BA",
"O@	c #286EA9",
"P@	c #004A7C",
"Q@	c #0C354B",
"R@	c #8B8258",
"S@	c #9E935F",
"T@	c #ADA16A",
"U@	c #C5B779",
"V@	c #DBCB86",
"W@	c #E9D98F",
"X@	c #E4E4E9",
"Y@	c #1B3F6A",
"Z@	c #004F89",
"`@	c #3C76B1",
" #	c #4B7DB3",
".#	c #00599C",
"+#	c #00345A",
"@#	c #616650",
"##	c #9B905E",
"$#	c #A69A65",
"%#	c #BBAE72",
"&#	c #D4C582",
"*#	c #E5D58C",
"=#	c #EEDD92",
"-#	c #F1E093",
";#	c #CCD5E3",
">#	c #16569A",
",#	c #6588BC",
"'#	c #00406C",
")#	c #2E4548",
"!#	c #998D5C",
"~#	c #A09562",
"{#	c #B3A66D",
"]#	c #CBBD7C",
"^#	c #E0D089",
"/#	c #ECDB90",
"(#	c #CBD6E8",
"_#	c #155C9F",
":#	c #005795",
"<#	c #06324B",
"[#	c #8A8158",
"}#	c #9D925F",
"|#	c #AC9F69",
"1#	c #C3B576",
"2#	c #D9CA85",
"3#	c #E9D88F",
"4#	c #89A2C7",
"5#	c #004581",
"6#	c #00365A",
"7#	c #5F644F",
"8#	c #A59965",
"9#	c #BAAD71",
"0#	c #E4D48C",
"a#	c #F4F3F2",
"b#	c #ECE5DF",
"c#	c #335076",
"d#	c #2B4347",
"e#	c #988C5B",
"f#	c #9F9461",
"g#	c #B2A56C",
"h#	c #CABC7C",
"i#	c #EBDB90",
"j#	c #FDFCFC",
"k#	c #EAE8E8",
"l#	c #C1BBB9",
"m#	c #666162",
"n#	c #827D56",
"o#	c #C1B375",
"p#	c #D8C984",
"q#	c #1D1D1D",
"r#	c #908882",
"s#	c #877D57",
"t#	c #ADA169",
"u#	c #B2A56D",
"v#	c #C0B376",
"w#	c #D3C481",
"x#	c #E4D48B",
"y#	c #EDDD91",
"    . + + + + + + + + + + + + + + + + + + + + + + + + + @       ",
"    + # # # # # # # # # # $ % # # & * # # # # # # # # # +       ",
"    + # # # # # # # # # # = - ; > , ' ) # # # # # # ! # +       ",
"    + # # ~ { ] ^ / ( _ : # < [ } | # 1 2 3 4 5 6 7 8 # +       ",
"    + # 9 0 + a b c d e f g : h i 1 j k l m n o p + q r +       ",
"    + s + + t u v w x y z A B C D E F G H I J K L M + N +       ",
"    + O P + + Q R S T U V W X + + Y Z `  ...+.@.#.+ + $.+       ",
"    + # %.&.+ + *.=.-.;.>.,.d '.).!.~.{.].^./.(.+ + _.:.+       ",
"    + # # # <.+ [.}.|.1.2.3.4.5.A 6.7.8.9.0.a.b.+ c.# d.+       ",
"    + # # # e.f.+ g.h.i.j.7.k.l.m.n.o.p.q.r.s.+ t.# u.v.w.      ",
"    + # # x.# y.z.+ A.B.C.D.E.F.G.H.I.J.K.+ L.M.N.O.P.Q.R.      ",
"    + # # # # # S.+ + T.U.V.W.X.Y.Z.`. +.++ ++# # @+#+$+%+      ",
"    + # # x.x.! x.&++ + *+=+-+;+>+,+'+)++ !+~+# {+]+^+/+(+      ",
"    + # # x.! x.# _+:++ + <+[+}+|+1+2++ 3+4+# 5+6+7+8+9+0+      ",
"    + # # x.x.x.# # a+b++ + + c+d++ + e+f+# ! g+h+i+j+k+l+      ",
"    + # # # # # # # # m+n++ o+p+q+r+s+t+# ! u+v+w+x+y+z+A+      ",
"    + # # x.x.x.# x.x.# B+C+D+# # E+F+# # 5+G+H+I+J+K+L+M+      ",
"    + # # x.! x.# x.! x.# # ! x.# # # ! # N+O+P+Q+R+S+T+U+      ",
"    + # # x.x.x.# x.x.x.# x.x.x.# x.V+# W+X+Y+Z+`+ @.@+@@@      ",
"    + # # # # # # # # # # # # # # # #@$@%@&@*@=@-@;@>@,@'@      ",
"    + # # x.x.x.# x.x.x.# x.! # )@!@~@{@]@^@/@(@_@:@<@[@}@      ",
"    + # # x.! x.# x.! x.# ! # |@1@2@3@4@5@6@7@(+8@9@0@a@b@      ",
"    + # # x.x.x.# x.x.! # c@d@e@f@g@h@i@j@k@l@m@n@o@p@q@r@      ",
"    + # # # # # # # # # s@t@u@v@w@x@y@z@A@B@C@D@E@F@G@H@I@      ",
"    + # # x.x.x.# x.# J@K@L@M@N@O@4@P@Q@R@S@T@U@V@W@b@r@I@      ",
"    + # # x.! x.# x.# X@Y@Z@`@ #.#&@+#@###$#%#&#*#=#r@-#I@      ",
"    + # # x.x.x.# x.x.# ;#>#,#x@]@'#)#!#~#{#]#^#/#-#r@-#I@      ",
"    + # # # # # # # # # # (#_#:#P@<#[#}#|#1#2#3#b@r@I@I@I@      ",
"    + # # x.x.x.# x.x.x.# # 4#5#6#7#B@8#9#U+0#=#r@r@-#-#I@      ",
"    + # # x.! x.# x.! ! ! a#b#c#d#e#f#g#h#@@i#-#r@r@r@-#I@      ",
"    + # # # # # # # # # j#k#l#m#n#R+|#o#p#'@b@r@I@-#-#-#I@      ",
"    . + + + + + + + + + + q#r#s#t#u#v#w#x#y#r@I@I@I@I@I@I@      "};
